<svg width="112" height="110" viewBox="0 0 112 110" fill="none" xmlns="http://www.w3.org/2000/svg">
<g filter="url(#filter0_d_523_284)">
<path d="M55.9062 68C70.1448 68 81.6875 56.8071 81.6875 43C81.6875 29.1929 70.1448 18 55.9062 18C41.6677 18 30.125 29.1929 30.125 43C30.125 56.8071 41.6677 68 55.9062 68Z" fill="white"/>
<path d="M55.9062 68C70.1448 68 81.6875 56.8071 81.6875 43C81.6875 29.1929 70.1448 18 55.9062 18C41.6677 18 30.125 29.1929 30.125 43C30.125 56.8071 41.6677 68 55.9062 68Z" stroke="white"/>
</g>
<path d="M67 40.7095C67.0495 39.2781 66.7365 37.8575 66.09 36.5795C65.6514 36.0551 65.0427 35.7012 64.37 35.5795C61.5875 35.327 58.7936 35.2235 56 35.2695C53.2167 35.2215 50.4327 35.3216 47.66 35.5695C47.1118 35.6692 46.6045 35.9263 46.2 36.3095C45.3 37.1395 45.2 38.5595 45.1 39.7595C44.9549 41.9171 44.9549 44.0819 45.1 46.2395C45.129 46.9149 45.2295 47.5853 45.4 48.2395C45.5206 48.7446 45.7645 49.2118 46.11 49.5995C46.5173 50.003 47.0364 50.2747 47.6 50.3795C49.7559 50.6456 51.9282 50.7559 54.1 50.7095C57.6 50.7595 60.67 50.7095 64.3 50.4295C64.8775 50.3311 65.4112 50.059 65.83 49.6495C66.11 49.3694 66.3191 49.0266 66.44 48.6495C66.7977 47.5521 66.9733 46.4036 66.96 45.2495C67 44.6895 67 41.3095 67 40.7095ZM53.74 45.8495V39.6595L59.66 42.7695C58 43.6895 55.81 44.7295 53.74 45.8495Z" fill="#333333"/>
<defs>
<filter id="filter0_d_523_284" x="0.125" y="0" width="111.562" height="110" filterUnits="userSpaceOnUse" color-interpolation-filters="sRGB">
<feFlood flood-opacity="0" result="BackgroundImageFix"/>
<feColorMatrix in="SourceAlpha" type="matrix" values="0 0 0 0 0 0 0 0 0 0 0 0 0 0 0 0 0 0 127 0" result="hardAlpha"/>
<feOffset dy="12"/>
<feGaussianBlur stdDeviation="15"/>
<feColorMatrix type="matrix" values="0 0 0 0 0 0 0 0 0 0 0 0 0 0 0 0 0 0 0.08 0"/>
<feBlend mode="normal" in2="BackgroundImageFix" result="effect1_dropShadow_523_284"/>
<feBlend mode="normal" in="SourceGraphic" in2="effect1_dropShadow_523_284" result="shape"/>
</filter>
</defs>
</svg>
