<svg width="112" height="110" viewBox="0 0 112 110" fill="none" xmlns="http://www.w3.org/2000/svg">
<g filter="url(#filter0_d_523_273)">
<path d="M55.7812 68C70.0198 68 81.5625 56.8071 81.5625 43C81.5625 29.1929 70.0198 18 55.7812 18C41.5427 18 30 29.1929 30 43C30 56.8071 41.5427 68 55.7812 68Z" fill="#2C373E"/>
<path d="M55.7812 68C70.0198 68 81.5625 56.8071 81.5625 43C81.5625 29.1929 70.0198 18 55.7812 18C41.5427 18 30 29.1929 30 43C30 56.8071 41.5427 68 55.7812 68Z" stroke="white"/>
</g>
<g clip-path="url(#clip0_523_273)">
<path d="M59.6484 35.5H51.9141C49.7783 35.5 48.0469 37.1789 48.0469 39.25V46.75C48.0469 48.8211 49.7783 50.5 51.9141 50.5H59.6484C61.7842 50.5 63.5156 48.8211 63.5156 46.75V39.25C63.5156 37.1789 61.7842 35.5 59.6484 35.5Z" stroke="white" stroke-width="2" stroke-linecap="round" stroke-linejoin="round"/>
<path d="M58.8738 42.5287C58.9692 43.1529 58.8593 43.7904 58.5596 44.3505C58.2599 44.9106 57.7857 45.3648 57.2044 45.6485C56.6231 45.9322 55.9644 46.0309 55.322 45.9307C54.6795 45.8304 54.086 45.5363 53.6259 45.0901C53.1657 44.6439 52.8624 44.0684 52.759 43.4454C52.6556 42.8224 52.7575 42.1836 53.05 41.62C53.3426 41.0563 53.811 40.5965 54.3886 40.3059C54.9662 40.0153 55.6236 39.9086 56.2673 40.0012C56.9239 40.0956 57.5317 40.3923 58.0011 40.8474C58.4704 41.3026 58.7764 41.892 58.8738 42.5287Z" stroke="white" stroke-width="2" stroke-linecap="round" stroke-linejoin="round"/>
<ellipse cx="60.0352" cy="38.875" rx="1.16016" ry="1.125" fill="white"/>
</g>
<defs>
<filter id="filter0_d_523_273" x="0" y="0" width="111.562" height="110" filterUnits="userSpaceOnUse" color-interpolation-filters="sRGB">
<feFlood flood-opacity="0" result="BackgroundImageFix"/>
<feColorMatrix in="SourceAlpha" type="matrix" values="0 0 0 0 0 0 0 0 0 0 0 0 0 0 0 0 0 0 127 0" result="hardAlpha"/>
<feOffset dy="12"/>
<feGaussianBlur stdDeviation="15"/>
<feColorMatrix type="matrix" values="0 0 0 0 0 0 0 0 0 0 0 0 0 0 0 0 0 0 0.08 0"/>
<feBlend mode="normal" in2="BackgroundImageFix" result="effect1_dropShadow_523_273"/>
<feBlend mode="normal" in="SourceGraphic" in2="effect1_dropShadow_523_273" result="shape"/>
</filter>
<clipPath id="clip0_523_273">
<rect width="18.5625" height="18" fill="white" transform="translate(46.5 34)"/>
</clipPath>
</defs>
</svg>
